<?xml version="1.0" standalone="no"?>
<!DOCTYPE svg PUBLIC "-//W3C//DTD SVG 20010904//EN"
 "http://www.w3.org/TR/2001/REC-SVG-20010904/DTD/svg10.dtd">
<svg version="1.0" xmlns="http://www.w3.org/2000/svg"
 width="512.000000pt" height="512.000000pt" viewBox="0 0 512.000000 512.000000"
 preserveAspectRatio="xMidYMid meet">

<g transform="translate(0.000000,512.000000) scale(0.100000,-0.100000)"
fill="#000000" stroke="none">
<path d="M1263 3615 c-37 -16 -53 -42 -53 -85 0 -60 31 -90 106 -100 l41 -5
-93 -82 c-103 -92 -294 -296 -416 -445 -78 -95 -81 -97 -137 -108 -189 -37
-442 -127 -543 -194 -55 -36 -68 -51 -101 -116 l-39 -75 94 -8 c51 -4 125 -6
163 -4 59 3 55 3 -27 5 l-98 2 0 60 0 61 98 -3 97 -3 3 -57 3 -58 2379 0 2380
0 0 270 c0 247 -2 281 -25 397 -57 291 -130 479 -208 537 l-28 21 -1782 2
c-1499 2 -1787 0 -1814 -12z m2907 -415 l0 -240 -410 0 -410 0 0 233 c0 129 3
237 7 240 3 4 188 7 410 7 l403 0 0 -240z m-1970 -10 l0 -240 -525 0 c-289 0
-525 3 -525 6 0 14 165 196 254 282 92 87 190 162 238 182 13 5 143 9 291 9
l267 1 0 -240z m1050 0 l0 -240 -415 0 -415 0 0 240 0 240 415 0 415 0 0 -240z
m1577 5 c28 -126 52 -233 52 -237 1 -5 -136 -8 -304 -8 l-305 0 0 240 0 240
252 -2 252 -3 53 -230z"/>
<path d="M4 2243 c-7 -71 1 -319 12 -347 5 -14 30 -16 188 -16 l182 0 11 66
c29 168 151 304 312 346 66 17 64 17 -316 17 l-381 1 -8 -67z"/>
<path d="M908 2299 c168 -33 319 -193 338 -359 l7 -60 1317 0 1318 0 11 62
c31 177 156 313 326 354 40 10 -289 12 -1655 12 -965 0 -1686 -4 -1662 -9z"/>
<path d="M4429 2294 c169 -45 304 -196 318 -355 l6 -59 183 0 184 0 0 215 0
215 -372 -1 c-345 0 -369 -1 -319 -15z"/>
<path d="M705 2247 c-109 -37 -195 -112 -242 -212 -25 -53 -28 -71 -28 -160 0
-90 3 -106 29 -160 144 -292 557 -290 694 3 24 50 27 69 27 162 0 94 -3 111
-27 161 -38 76 -109 146 -188 183 -51 24 -80 30 -145 33 -48 2 -96 -2 -120
-10z m158 -211 c50 -18 76 -42 98 -91 25 -54 24 -93 -4 -145 -26 -50 -90 -90
-144 -90 -80 0 -157 65 -168 143 -8 50 16 118 53 150 22 20 86 46 112 46 8 0
32 -6 53 -13z"/>
<path d="M4203 2245 c-103 -32 -194 -113 -241 -213 -24 -50 -27 -70 -27 -157
0 -90 3 -106 29 -160 143 -292 558 -290 694 3 34 72 42 193 18 274 -33 114
-137 217 -255 252 -65 19 -160 20 -218 1z m189 -221 c43 -22 78 -76 84 -130
18 -159 -186 -247 -289 -125 -39 46 -52 97 -37 149 28 108 142 157 242 106z"/>
<path d="M1280 1780 l0 -60 1320 0 1320 0 0 60 0 60 -1320 0 -1320 0 0 -60z"/>
</g>
</svg>
